<svg xmlns="http://www.w3.org/2000/svg" xmlns:xlink="http://www.w3.org/1999/xlink" preserveAspectRatio="xMidYMid" width="185" height="34.941" viewBox="0 0 185 34.941">
  <defs>
    <style>
      .cls-1 {
        fill: #292929;
      }

      .cls-1, .cls-2 {
        fill-rule: evenodd;
      }

      .cls-2 {
        fill: #ffba00;
      }
    </style>
  </defs>
  <g>
    <path d="M184.139 11.938L184.139 8.966L183.111 10.299L182.68 10.299L181.639 8.952L181.639 11.938L180.792 11.938L180.792 7.633L181.583 7.633L182.889 9.397L184.18 7.633L185 7.633L185 11.938L184.139 11.938ZM178.681 11.938L177.82 11.938L177.82 8.383L176.472 8.383L176.472 7.633L180.069 7.633L180.069 8.383L178.681 8.383L178.681 11.938ZM166.555 24.407C165.245 24.407 164.268 24.073 163.339 23.525L164.554 20.905C165.03 21.19 165.626 21.405 166.102 21.405C166.722 21.405 167.055 21.214 167.365 20.571L162.362 7.753L166.198 7.753L169.104 16.449L171.892 7.753L175.656 7.753L170.748 20.833C169.771 23.43 168.723 24.407 166.555 24.407ZM157.167 15.806L157.167 20.523L153.546 20.523L153.546 7.753L157.167 7.753L157.167 10.326C157.906 8.563 159.097 7.419 161.241 7.515L161.241 11.303L161.051 11.303C158.645 11.303 157.167 12.756 157.167 15.806ZM146.922 19.142C146.04 20.118 144.825 20.762 143.062 20.762C140.656 20.762 138.678 19.38 138.678 16.807C138.678 14.019 140.799 12.732 143.825 12.732C145.111 12.732 146.04 12.947 146.946 13.257L146.946 13.042C146.946 11.541 146.017 10.707 144.206 10.707C142.824 10.707 141.847 10.969 140.68 11.398L139.774 8.635C141.18 8.015 142.562 7.61 144.73 7.61C146.708 7.61 148.137 8.134 149.043 9.039C149.996 9.992 150.424 11.398 150.424 13.114L150.424 20.523L146.922 20.523L146.922 19.142ZM146.993 15.377C146.374 15.091 145.564 14.901 144.682 14.901C143.134 14.901 142.181 15.52 142.181 16.711C142.181 17.688 142.991 18.26 144.158 18.26C145.85 18.26 146.993 17.331 146.993 16.02L146.993 15.377ZM133.77 16.306C133.77 17.14 134.127 17.545 134.938 17.545C135.605 17.545 136.2 17.378 136.724 17.093L136.724 19.999C135.962 20.452 135.08 20.738 133.865 20.738C131.65 20.738 130.149 19.856 130.149 16.902L130.149 10.85L128.624 10.85L128.624 7.753L130.149 7.753L130.149 4.489L133.77 4.489L133.77 7.753L136.772 7.753L136.772 10.85L133.77 10.85L133.77 16.306ZM119.999 20.809C116.044 20.809 113.113 17.879 113.113 14.162C113.113 10.493 116.067 7.515 120.046 7.515C124.001 7.515 126.932 10.445 126.932 14.162C126.932 17.831 123.978 20.809 119.999 20.809ZM119.999 10.636C117.926 10.636 116.687 12.232 116.687 14.162C116.687 16.044 118.045 17.688 120.046 17.688C122.119 17.688 123.358 16.092 123.358 14.162C123.358 12.28 122 10.636 119.999 10.636ZM98.913 9.921L98.913 20.523L95.291 20.523L95.291 3.846L98.674 3.846L106.489 14.114L106.489 3.846L110.111 3.846L110.111 20.523L106.989 20.523L98.913 9.921Z" class="cls-1"/>
    <path d="M85.325 20.809C81.37 20.809 78.439 17.879 78.439 14.162C78.439 10.493 81.394 7.515 85.372 7.515C89.327 7.515 92.258 10.445 92.258 14.162C92.258 17.831 89.304 20.809 85.325 20.809ZM85.325 10.636C83.252 10.636 82.013 12.232 82.013 14.162C82.013 16.044 83.371 17.688 85.372 17.688C87.445 17.688 88.684 16.092 88.684 14.162C88.684 12.28 87.326 10.636 85.325 10.636ZM73.078 15.806L73.078 20.523L69.457 20.523L69.457 7.753L73.078 7.753L73.078 10.326C73.817 8.563 75.008 7.419 77.152 7.515L77.152 11.303L76.962 11.303C74.555 11.303 73.078 12.756 73.078 15.806ZM60.379 15.52L57.591 15.52L57.591 20.523L53.922 20.523L53.922 3.846L60.736 3.846C64.715 3.846 67.121 6.204 67.121 9.659C67.121 13.519 64.119 15.52 60.379 15.52ZM60.426 7.157L57.591 7.157L57.591 12.256L60.498 12.256C62.332 12.256 63.404 11.16 63.404 9.683C63.404 8.039 62.261 7.157 60.426 7.157Z" class="cls-2"/>
    <path d="M24.623 25.417L9.844 25.417L0.01 34.938L0.003 0.002L24.623 0.002C31.642 0.002 37.331 5.692 37.331 12.71C37.331 19.728 31.642 25.417 24.623 25.417ZM24.522 7.944L7.945 7.944L7.947 19.855L10.471 17.475L24.522 17.475C27.21 17.475 29.389 15.342 29.389 12.71C29.389 10.078 27.21 7.944 24.522 7.944Z" class="cls-2"/>
  </g>
</svg>
